<?xml version="1.0" encoding="utf-8"?>
<!DOCTYPE svg PUBLIC "-//W3C//DTD SVG 20010904//EN" "http://www.w3.org/TR/2001/REC-SVG-20010904/DTD/svg10.dtd">
<svg version="1.0" xmlns="http://www.w3.org/2000/svg" width="312px" height="312px" viewBox="0 0 312 312" preserveAspectRatio="xMidYMid meet">
 <g fill="#ff9100">
  <path d="M106.7 276.6 c-7.6 -4.6 -10 -6.5 -18 -14.4 -12 -11.7 -20.7 -27.1 -24.9 -43.9 -3.1 -12.2 -3.1 -35.1 0 -46.6 4.5 -16.6 13.1 -31.1 27.1 -46.1 17 -18.1 23.5 -32.8 23.5 -54.1 0 -16 -4.4 -30.4 -15 -48.3 -2.5 -4.1 -4.3 -7.6 -4.1 -7.9 0.8 -0.7 27.2 15.9 39 24.5 34.3 25 63.7 53.7 89.8 87.7 14.1 18.3 19.9 29.1 24.1 44.6 3.2 12 3.2 33.5 0 46.2 -2.6 10.4 -7.4 21.3 -13.6 30.5 -7.2 10.9 -21.3 23.9 -31.8 29.3 l-3.7 1.9 2.9 -4.8 c7.1 -11.3 9.6 -26.7 6.6 -39.5 -2.7 -11.5 -6.7 -17.8 -19.5 -31.1 -13.1 -13.5 -16.8 -18.5 -21.6 -28.9 -4.2 -9 -6.5 -17.8 -7.4 -28.2 l-0.7 -8 -11.5 11.5 c-22.6 22.6 -35.6 44.2 -42.6 70.9 -2.1 7.7 -2.6 12.1 -2.7 22.6 -0.1 14.6 1.3 20.6 7 30.1 1.8 3 3.1 5.4 3 5.4 -0.1 0 -2.8 -1.5 -5.9 -3.4z"/>
 </g>
</svg>